<svg width="37" height="25" viewBox="0 0 37 25" fill="none" xmlns="http://www.w3.org/2000/svg">
<path d="M9.54158 6.125H0.583252V2.54167H9.54158V6.125ZM9.54158 11.5H0.583252V15.0833H9.54158V11.5ZM33.8903 24.0417L27.0283 17.1796C25.5949 18.1112 23.9108 18.6667 22.0833 18.6667C17.1383 18.6667 13.1249 14.6533 13.1249 9.70833C13.1249 4.76333 17.1383 0.75 22.0833 0.75C27.0283 0.75 31.0416 4.76333 31.0416 9.70833C31.0416 11.5358 30.4862 13.22 29.5545 14.6354L36.4166 21.5154L33.8903 24.0417ZM27.4583 9.70833C27.4583 6.75208 25.0395 4.33333 22.0833 4.33333C19.127 4.33333 16.7083 6.75208 16.7083 9.70833C16.7083 12.6646 19.127 15.0833 22.0833 15.0833C25.0395 15.0833 27.4583 12.6646 27.4583 9.70833ZM0.583252 24.0417H18.4999V20.4583H0.583252V24.0417Z" fill="black"/>
</svg>
