<svg width="20" height="19" viewBox="0 0 20 19" fill="none" xmlns="http://www.w3.org/2000/svg">
<path d="M6.3628 14.7126L6.09734 15.8629L7.10825 15.2531L9.9983 13.5099L12.8893 15.2766L13.9027 15.8959L13.6374 14.7383L12.8795 11.4315L15.4271 9.22818L16.3192 8.45658L15.1443 8.35197L11.7925 8.05352L10.4599 4.92886L10.0017 3.8544L9.5406 4.92763L8.2084 8.02844L4.85566 8.32697L3.6891 8.43084L4.57099 9.2015L7.12046 11.4294L6.3628 14.7126ZM4.5784 17.9616L5.93714 12.0877L6.00498 11.7944L5.77753 11.5972L1.22002 7.64598L7.24324 7.12313L7.5433 7.09708L7.66056 6.81965L10 1.28436L12.3394 6.81965L12.4567 7.09708L12.7568 7.12313L18.78 7.64598L14.2225 11.5972L13.995 11.7944L14.0629 12.0877L15.4216 17.9616L10.2583 14.8469L10 14.6911L9.74173 14.8469L4.5784 17.9616Z" fill="white" stroke="#FFC700"/>
</svg>
