<svg width="37" height="25" viewBox="0 0 37 25" fill="none" xmlns="http://www.w3.org/2000/svg">
<path d="M9.54171 6.125H0.583374V2.54167H9.54171V6.125ZM9.54171 11.5H0.583374V15.0833H9.54171V11.5ZM33.8905 24.0417L27.0284 17.1796C25.595 18.1112 23.9109 18.6667 22.0834 18.6667C17.1384 18.6667 13.125 14.6533 13.125 9.70833C13.125 4.76333 17.1384 0.75 22.0834 0.75C27.0284 0.75 31.0417 4.76333 31.0417 9.70833C31.0417 11.5358 30.4863 13.22 29.5546 14.6354L36.4167 21.5154L33.8905 24.0417ZM27.4584 9.70833C27.4584 6.75208 25.0396 4.33333 22.0834 4.33333C19.1271 4.33333 16.7084 6.75208 16.7084 9.70833C16.7084 12.6646 19.1271 15.0833 22.0834 15.0833C25.0396 15.0833 27.4584 12.6646 27.4584 9.70833ZM0.583374 24.0417H18.5V20.4583H0.583374V24.0417Z" fill="black"/>
</svg>
